<svg width="510px" height="316px" xmlns="http://www.w3.org/2000/svg" xmlns:xlink="http://www.w3.org/1999/xlink">
<g style="">
  <path d="M172.656250,287.484375 L189.109375,244.828125 L191.750000,174.343750 L179.156250,228.171875 L146.859375,225.125000 L136.296875,243.203125 L80.640625,223.500000 L58.093750,123.156250 L91.812500,105.484375 L91.609375,89.640625 L117.000000,119.500000 L100.953125,140.015625 L107.656250,163.578125 L143.406250,119.703125 L93.437500,82.734375 L124.718750,93.296875 L225.671875,25.859375 L435.500000,133.718750 L440.916667,174.208333 L449.312500,183.890625 L446.265625,213.953125 L429.406250,186.937500 L433.671875,176.171875 L431.843750,162.968750 L391.218750,217.000000 L392.843750,249.906250 L362.578125,287.078125 L347.546875,286.468750 L369.890625,247.671875 L355.333333,202.916667 L366.437500,174.953125 L344.296875,198.718750 L261.421875,204.203125 L261.421875,185.921875 L221.406250,245.437500 L186.265625,287.078125 L172.656250,287.484375 Z M89.171875,171.093750 L97.500000,206.640625 L108.468750,174.343750 L89.171875,171.093750 Z" style="fill: rgba(0, 0, 0, 1.000000); stroke-width: 1.000000px; stroke: rgba(0, 0, 0, 1.000000); " fill="#000000" stroke="#000000" stroke-width="1.000000" />
  <path d="M237.859375,285.859375 L234.406250,248.281250 L254.312500,222.890625 L260.203125,251.937500 L246.796875,285.046875 L237.859375,285.859375 Z" style="fill: rgba(0, 0, 0, 1.000000); stroke-width: 1.000000px; stroke: rgba(0, 0, 0, 1.000000); " fill="#000000" stroke="#000000" stroke-width="1.000000" />
  <path d="M404.828125,217.812500 L421.484375,196.281250 L435.906250,231.625000 L416.000000,285.859375 L403.609375,286.062500 L415.796875,233.859375 L404.828125,217.812500 Z" style="fill: rgba(0, 0, 0, 1.000000); stroke-width: 1.000000px; stroke: rgba(0, 0, 0, 1.000000); " fill="#000000" stroke="#000000" stroke-width="1.000000" />
</g></svg>
